<svg xmlns="http://www.w3.org/2000/svg" viewBox="0 0 760 380" font-family="'Segoe UI',system-ui,sans-serif">
  <rect width="760" height="380" rx="16" fill="#fefce8"/>

  <text x="380" y="36" text-anchor="middle" font-size="18" font-weight="700" fill="#713f12">📱 AI kolem nás – kde všude ji potkáš?</text>

  <!-- Phone -->
  <g transform="translate(30,55)">
    <rect width="220" height="290" rx="14" fill="white" stroke="#fbbf24" stroke-width="2"/>
    <rect x="10" y="30" width="200" height="210" rx="8" fill="#fffbeb"/>
    <text x="110" y="22" text-anchor="middle" font-size="12" font-weight="700" fill="#92400e">📱 V telefonu</text>

    <g transform="translate(20,42)">
      <rect width="180" height="32" rx="6" fill="white" stroke="#fde68a" stroke-width="1"/>
      <text x="10" y="22" font-size="13">🔓</text>
      <text x="32" y="22" font-size="10" fill="#374151">Face ID – rozpoznání obličeje</text>
    </g>
    <g transform="translate(20,82)">
      <rect width="180" height="32" rx="6" fill="white" stroke="#fde68a" stroke-width="1"/>
      <text x="10" y="22" font-size="13">🗣️</text>
      <text x="32" y="22" font-size="10" fill="#374151">Siri / Google Assistant</text>
    </g>
    <g transform="translate(20,122)">
      <rect width="180" height="32" rx="6" fill="white" stroke="#fde68a" stroke-width="1"/>
      <text x="10" y="22" font-size="13">✏️</text>
      <text x="32" y="22" font-size="10" fill="#374151">Automatické opravy textu</text>
    </g>
    <g transform="translate(20,162)">
      <rect width="180" height="32" rx="6" fill="white" stroke="#fde68a" stroke-width="1"/>
      <text x="10" y="22" font-size="13">📸</text>
      <text x="32" y="22" font-size="10" fill="#374151">Doporučené fotky</text>
    </g>

    <text x="110" y="270" text-anchor="middle" font-size="28">📲</text>
  </g>

  <!-- Home -->
  <g transform="translate(270,55)">
    <rect width="220" height="290" rx="14" fill="white" stroke="#a78bfa" stroke-width="2"/>
    <rect x="10" y="30" width="200" height="210" rx="8" fill="#f5f3ff"/>
    <text x="110" y="22" text-anchor="middle" font-size="12" font-weight="700" fill="#5b21b6">🏠 Doma</text>

    <g transform="translate(20,42)">
      <rect width="180" height="32" rx="6" fill="white" stroke="#ddd6fe" stroke-width="1"/>
      <text x="10" y="22" font-size="13">🎬</text>
      <text x="32" y="22" font-size="10" fill="#374151">Netflix / YT doporučení</text>
    </g>
    <g transform="translate(20,82)">
      <rect width="180" height="32" rx="6" fill="white" stroke="#ddd6fe" stroke-width="1"/>
      <text x="10" y="22" font-size="13">🔊</text>
      <text x="32" y="22" font-size="10" fill="#374151">Alexa / Google Home</text>
    </g>
    <g transform="translate(20,122)">
      <rect width="180" height="32" rx="6" fill="white" stroke="#ddd6fe" stroke-width="1"/>
      <text x="10" y="22" font-size="13">🤖</text>
      <text x="32" y="22" font-size="10" fill="#374151">Robotický vysavač</text>
    </g>
    <g transform="translate(20,162)">
      <rect width="180" height="32" rx="6" fill="white" stroke="#ddd6fe" stroke-width="1"/>
      <text x="10" y="22" font-size="13">📧</text>
      <text x="32" y="22" font-size="10" fill="#374151">Spam filtr v e-mailu</text>
    </g>

    <text x="110" y="270" text-anchor="middle" font-size="28">🏡</text>
  </g>

  <!-- School -->
  <g transform="translate(510,55)">
    <rect width="220" height="290" rx="14" fill="white" stroke="#6ee7b7" stroke-width="2"/>
    <rect x="10" y="30" width="200" height="210" rx="8" fill="#ecfdf5"/>
    <text x="110" y="22" text-anchor="middle" font-size="12" font-weight="700" fill="#065f46">🏫 Ve škole</text>

    <g transform="translate(20,42)">
      <rect width="180" height="32" rx="6" fill="white" stroke="#a7f3d0" stroke-width="1"/>
      <text x="10" y="22" font-size="13">🌍</text>
      <text x="32" y="22" font-size="10" fill="#374151">Google Translate / DeepL</text>
    </g>
    <g transform="translate(20,82)">
      <rect width="180" height="32" rx="6" fill="white" stroke="#a7f3d0" stroke-width="1"/>
      <text x="10" y="22" font-size="13">💬</text>
      <text x="32" y="22" font-size="10" fill="#374151">ChatGPT – vysvětlení učiva</text>
    </g>
    <g transform="translate(20,122)">
      <rect width="180" height="32" rx="6" fill="white" stroke="#a7f3d0" stroke-width="1"/>
      <text x="10" y="22" font-size="13">🧮</text>
      <text x="32" y="22" font-size="10" fill="#374151">Wolfram Alpha – matika</text>
    </g>
    <g transform="translate(20,162)">
      <rect width="180" height="32" rx="6" fill="white" stroke="#a7f3d0" stroke-width="1"/>
      <text x="10" y="22" font-size="13">📝</text>
      <text x="32" y="22" font-size="10" fill="#374151">Grammarly – angličtina</text>
    </g>

    <text x="110" y="270" text-anchor="middle" font-size="28">🎓</text>
  </g>
</svg>
