<svg xmlns="http://www.w3.org/2000/svg" width="360" height="240" viewBox="0 0 360 240" role="img" aria-label="Graf d)" >
  <defs>
    <style>
      .axis{stroke:#0f172a;stroke-width:3;fill:none;stroke-linecap:round}
      .grid{stroke:#94a3b8;stroke-width:2;fill:none;opacity:.45}
      .curve{stroke:#2563eb;stroke-width:5;fill:none;stroke-linecap:round}
      .pt{fill:#2563eb}
      .txt{font: 18px system-ui, -apple-system, Segoe UI, Roboto, Arial, sans-serif; fill:#0f172a; font-weight:700}
      .lbl{font: 20px system-ui, -apple-system, Segoe UI, Roboto, Arial, sans-serif; fill:#0f172a; font-weight:800}
    </style>
  </defs>

  <!-- Origin at (60,190) -->
  <path class="axis" d="M60 190 H320"/>
  <path class="axis" d="M60 190 V30"/>

  <!-- helper lines for x=3,6,9 and y=12,6,4 -->
  <path class="grid" d="M140 190 V46"/>
  <path class="grid" d="M220 190 V110"/>
  <path class="grid" d="M300 190 V136"/>
  <path class="grid" d="M60 46 H140"/>
  <path class="grid" d="M60 110 H220"/>
  <path class="grid" d="M60 136 H300"/>

  <!-- hyperbola (nepřímá úměrnost): strmý začátek u osy y, plynulý pokles přes body -->
  <path class="curve" d="M74 32
    C75 38, 95 44, 140 46
    C175 60, 200 92, 220 110
    C250 126, 276 134, 300 136"/>

  <!-- points (3,12), (6,6), (9,4) mapped to our grid -->
  <circle class="pt" cx="140" cy="46" r="7"/>
  <circle class="pt" cx="220" cy="110" r="7"/>
  <circle class="pt" cx="300" cy="136" r="7"/>

  <!-- labels -->
  <text class="lbl" x="20" y="32">d)</text>
  <text class="txt" x="328" y="196">x</text>
  <text class="txt" x="48" y="22">y</text>
  <text class="txt" x="132" y="222">3</text>
  <text class="txt" x="212" y="222">6</text>
  <text class="txt" x="292" y="222">9</text>
  <text class="txt" x="20" y="52">12</text>
  <text class="txt" x="34" y="116">6</text>
  <text class="txt" x="34" y="142">4</text>
</svg>
